<svg xmlns="http://www.w3.org/2000/svg" xmlns:xlink="http://www.w3.org/1999/xlink" version="1.1" width="500" height="500" viewBox="0 0 500 500" xml:space="preserve">
<desc fill="#000000">Created with Fabric.js 5.3.0</desc>
<defs fill="#000000">
</defs>
<g transform="matrix(17.0793982929 0 0 17.0793982929 250 250)" id="po0djB7LDii7WGorAIzJ3">
<path style="stroke: none; stroke-width: 1; stroke-dasharray: none; stroke-linecap: butt; stroke-dashoffset: 0; stroke-linejoin: miter; stroke-miterlimit: 4; fill:#000000; fill-rule: nonzero; opacity: 1;" vector-effect="non-scaling-stroke" transform=" translate(-14.5, -14.5)" d="M 5.5 5 C 4.845 5 4.84 6.01 5.5 6 L 27.5 6 C 27.786 6 28 6.214 28 6.5 L 28 19.5 C 28 20.16 29 20.16 29 19.5 L 29 6.5 C 29 5.678 28.322 5 27.5 5 L 5.5 5 z M 3.5 7 C 2.846 7 2.846 8 3.5 8 L 25.5 8 C 25.786 8 26 8.214 26 8.5 L 26 21.5 C 26 22.165 27.01 22.16 27 21.5 L 27 8.5 C 27 7.678 26.322 7 25.5 7 L 3.5 7 z M 1.5 9 C 0.678 9 0 9.678 0 10.5 L 0 22.5 C 0 23.322 0.678 24 1.5 24 L 23.5 24 C 24.322 24 25 23.322 25 22.5 L 25 10.5 C 25 9.678 24.322 9 23.5 9 L 1.5 9 z M 1.5 10 L 23.5 10 C 23.786 10 24 10.214 24 10.5 L 24 22.5 C 24 22.786 23.786 23 23.5 23 L 1.5 23 C 1.214 23 1 22.786 1 22.5 L 1 10.5 C 1 10.214 1.214 10 1.5 10 z M 2.5 11 C 2.224 11 2 11.224 2 11.5 L 2 13.5 C 2 14.172 3 14.156 3 13.5 L 3 12 L 4.5 12 C 5.172 12 5.156 11 4.5 11 L 2.5 11 z M 12.5 11 C 9.468 11 7 13.468 7 16.5 C 7 19.532 9.468 22 12.5 22 C 15.532 22 18 19.532 18 16.5 C 18 13.468 15.532 11 12.5 11 z M 20.5 11 C 19.844 11 19.828 12 20.5 12 L 22 12 L 22 13.5 C 22 14.156 23 14.172 23 13.5 L 23 11.5 C 23 11.224 22.776 11 22.5 11 L 20.5 11 z M 12.5 12 C 14.99 12 17 14.01 17 16.5 C 17 18.990000000000002 14.99 21 12.5 21 C 10.01 21 8 18.99 8 16.5 C 8 14.010000000000002 10.01 12 12.5 12 z M 12.5 13 C 12.223 13 12 13.223 12 13.5 L 12 14.094 C 11.422 14.304 11 14.854 11 15.5 C 11 16.32 11.68 17 12.5 17 C 12.78 17 13 17.212 13 17.5 C 13 17.788 12.78 18 12.5 18 L 11.5 18 C 11.162 17.995 11 18.248 11 18.5 C 11 18.752 11.162 19.005 11.5 19 L 12 19 L 12 19.5 C 12 19.777 12.223 20 12.5 20 C 12.777 20 13 19.777 13 19.5 L 13 18.906 C 13.578 18.695999999999998 14 18.145999999999997 14 17.5 C 14 16.68 13.32 16 12.5 16 C 12.22 16 12 15.788 12 15.5 C 12 15.212 12.22 15 12.5 15 L 13.5 15 C 13.838 15.005 14 14.752 14 14.5 C 14 14.248 13.838 13.995 13.5 14 L 13 14 L 13 13.5 C 13 13.223 12.777 13 12.5 13 z M 2.5 19.002 C 2.25 19 2 19.163999999999998 2 19.5 L 2 21.5 C 2 21.776 2.224 22 2.5 22 L 4.5 22 C 5.156 22 5.172 21 4.5 21 L 3 21 L 3 19.5 C 3 19.172 2.75 19.004 2.5 19.002 z M 22.5 19.002 C 22.25 19.003999999999998 22 19.172 22 19.5 L 22 21 L 20.5 21 C 19.828 21 19.844 22 20.5 22 L 22.5 22 C 22.776 22 23 21.776 23 21.5 L 23 19.5 C 23 19.164 22.75 19 22.5 19.002 z" stroke-linecap="round"/>
</g>
</svg>