<svg version="1.0" xmlns="http://www.w3.org/2000/svg" width="360.000000pt" height="360.000000pt" viewBox="0 0 360.000000 360.000000" preserveAspectRatio="xMidYMid meet">

<g transform="translate(0.000000,360.000000) scale(0.100000,-0.100000)" fill="#ffffff" stroke="none">
<path d="M2860 2801 c-101 -31 -123 -51 -780 -707 -355 -354 -651 -644 -657 -644 -6 0 -13 3 -15 8 -2 4 -123 125 -268 269 -229 226 -274 266 -330 292 -157 75 -286 16 -341 -154 -16 -53 -17 -150 0 -200 11 -32 91 -117 390 -416 379 -379 462 -451 538 -465 45 -8 96 7 158 48 64 41 1546 1521 1571 1568 29 53 26 189 -4 255 -54 117 -161 177 -262 146z" fill="#ffffff"/>
</g>
</svg>