<?xml version="1.0" standalone="no"?>
<!DOCTYPE svg PUBLIC "-//W3C//DTD SVG 20010904//EN"
 "http://www.w3.org/TR/2001/REC-SVG-20010904/DTD/svg10.dtd">
<svg version="1.0" xmlns="http://www.w3.org/2000/svg"
 width="1466.000000pt" height="830.000000pt" viewBox="0 0 1466.000000 830.000000"
 preserveAspectRatio="xMidYMid meet">

<g transform="translate(0.000000,830.000000) scale(0.100000,-0.100000)"
fill="#000000" stroke="none">
<path d="M240 4150 l0 -3990 7110 0 7110 0 0 3990 0 3990 -7110 0 -7110 0 0
-3990z m7320 765 c83 -21 231 -94 301 -149 117 -92 233 -271 276 -426 13 -47
17 -101 17 -200 0 -99 -4 -153 -17 -200 -43 -155 -159 -334 -276 -426 -69 -54
-216 -128 -301 -150 -46 -13 -103 -18 -200 -18 -97 0 -154 5 -200 18 -85 22
-232 96 -301 150 -116 91 -234 272 -274 421 -26 96 -31 256 -11 355 66 328
332 589 655 640 78 13 255 5 331 -15z"/>
<path d="M7260 4831 c-240 -35 -452 -200 -547 -426 -28 -67 -53 -190 -53 -265
0 -75 25 -198 53 -265 61 -145 185 -281 322 -352 114 -59 187 -76 325 -76 138
0 211 17 325 76 137 71 261 207 322 352 28 67 53 190 53 265 0 75 -25 198 -53
265 -81 193 -269 359 -462 409 -75 19 -213 27 -285 17z m203 -476 c180 -103
327 -191 327 -195 0 -9 -643 -380 -659 -380 -8 0 -11 106 -11 386 0 212 3 383
8 381 4 -2 154 -88 335 -192z"/>
</g>
</svg>
